<svg xmlns="http://www.w3.org/2000/svg" viewBox="0 0 24 24" width="24" height="24">
  <path fill="#34A853" d="M12 2C6.48 2 2 4.02 2 6.5v11C2 19.98 6.48 22 12 22s10-2.02 10-4.5v-11C22 4.02 17.52 2 12 2zm0 2c4.42 0 8 1.34 8 3s-3.58 3-8 3-8-1.34-8-3 3.58-3 8-3zm0 16c-4.42 0-8-1.34-8-3v-2.66c1.68 1.14 4.7 1.66 8 1.66s6.32-.52 8-1.66V17c0 1.66-3.58 3-8 3zm0-5c-4.42 0-8-1.34-8-3v-2.66c1.68 1.14 4.7 1.66 8 1.66s6.32-.52 8-1.66V12c0 1.66-3.58 3-8 3zm0-5c-4.42 0-8-1.34-8-3v-2.66c1.68 1.14 4.7 1.66 8 1.66s6.32-.52 8-1.66V7c0 1.66-3.58 3-8 3z"/>
</svg>